<svg xmlns="http://www.w3.org/2000/svg" width="1280" height="720" viewBox="0 0 1280 720">
  <rect width="1280" height="720" fill="#f9fafb"/>
  <rect x="0" y="0" width="1280" height="80" fill="#ffffff"/>
  
  <!-- Top Navigation -->
  <rect x="20" y="20" width="200" height="40" rx="5" fill="#3b82f6"/>
  <text x="120" y="45" font-family="Arial" font-weight="bold" font-size="18" fill="white" text-anchor="middle">SaveFBVideos</text>
  
  <circle cx="1200" cy="40" r="20" fill="#f3f4f6"/>
  <text x="1200" y="47" font-family="Arial" font-size="20" fill="#4b5563" text-anchor="middle">🌙</text>
  
  <!-- Video Result Section -->
  <rect x="140" y="120" width="1000" height="400" rx="10" fill="#ffffff" stroke="#e5e7eb" stroke-width="2"/>
  
  <!-- Video Thumbnail -->
  <rect x="180" y="160" width="320" height="180" rx="8" fill="#f3f4f6"/>
  <rect x="250" y="210" width="180" height="80" rx="40" fill="rgba(59, 130, 246, 0.5)"/>
  <polygon points="310,210 350,250 310,290" fill="#ffffff"/>
  
  <!-- Video Details -->
  <text x="540" y="180" font-family="Arial" font-weight="bold" font-size="24" fill="#1f2937">Amazing Facebook Video Title</text>
  <text x="540" y="220" font-family="Arial" font-size="16" fill="#4b5563">Uploaded by: John Doe</text>
  
  <!-- Download Options -->
  <text x="540" y="270" font-family="Arial" font-weight="bold" font-size="18" fill="#4b5563">Download Options:</text>
  
  <rect x="540" y="290" width="180" height="50" rx="8" fill="#3b82f6"/>
  <text x="630" y="320" font-family="Arial" font-weight="bold" font-size="16" fill="white" text-anchor="middle">Download SD</text>
  
  <rect x="740" y="290" width="180" height="50" rx="8" fill="#3b82f6"/>
  <text x="830" y="320" font-family="Arial" font-weight="bold" font-size="16" fill="white" text-anchor="middle">Download HD</text>
  
  <rect x="540" y="360" width="180" height="50" rx="8" fill="#9ca3af"/>
  <text x="630" y="390" font-family="Arial" font-weight="bold" font-size="16" fill="white" text-anchor="middle">Download MP3</text>
  
  <!-- How It Works Section -->
  <text x="640" y="580" font-family="Arial" font-weight="bold" font-size="30" fill="#1f2937" text-anchor="middle">How It Works</text>
  
  <!-- Steps -->
  <rect x="200" y="620" width="250" height="150" rx="10" fill="#ffffff" stroke="#e5e7eb" stroke-width="1"/>
  <circle cx="240" cy="650" r="20" fill="#3b82f6"/>
  <text x="240" y="655" font-family="Arial" font-weight="bold" font-size="16" fill="white" text-anchor="middle">1</text>
  <text x="325" y="655" font-family="Arial" font-weight="bold" font-size="18" fill="#1f2937" text-anchor="middle">Copy URL</text>
  
  <rect x="510" y="620" width="250" height="150" rx="10" fill="#ffffff" stroke="#e5e7eb" stroke-width="1"/>
  <circle cx="550" cy="650" r="20" fill="#3b82f6"/>
  <text x="550" y="655" font-family="Arial" font-weight="bold" font-size="16" fill="white" text-anchor="middle">2</text>
  <text x="635" y="655" font-family="Arial" font-weight="bold" font-size="18" fill="#1f2937" text-anchor="middle">Paste & Fetch</text>
  
  <rect x="820" y="620" width="250" height="150" rx="10" fill="#ffffff" stroke="#e5e7eb" stroke-width="1"/>
  <circle cx="860" cy="650" r="20" fill="#3b82f6"/>
  <text x="860" y="655" font-family="Arial" font-weight="bold" font-size="16" fill="white" text-anchor="middle">3</text>
  <text x="945" y="655" font-family="Arial" font-weight="bold" font-size="18" fill="#1f2937" text-anchor="middle">Download</text>
</svg>
