<svg xmlns="http://www.w3.org/2000/svg" width="1280" height="720" viewBox="0 0 1280 720">
  <rect width="1280" height="720" fill="#f9fafb"/>
  <rect x="0" y="0" width="1280" height="80" fill="#ffffff"/>
  
  <!-- Top Navigation -->
  <rect x="20" y="20" width="200" height="40" rx="5" fill="#3b82f6"/>
  <text x="120" y="45" font-family="Arial" font-weight="bold" font-size="18" fill="white" text-anchor="middle">SaveFBVideos</text>
  
  <circle cx="1200" cy="40" r="20" fill="#f3f4f6"/>
  <text x="1200" y="47" font-family="Arial" font-size="20" fill="#4b5563" text-anchor="middle">🌙</text>
  
  <!-- Hero Section -->
  <rect x="0" y="80" width="1280" height="450" fill="#f3f4f6"/>
  <text x="640" y="180" font-family="Arial" font-weight="bold" font-size="40" fill="#1f2937" text-anchor="middle">Download Facebook Videos Easily</text>
  <text x="640" y="230" font-family="Arial" font-size="22" fill="#4b5563" text-anchor="middle">Save any Facebook video in HD or SD quality with just a few clicks</text>
  
  <!-- Input Box -->
  <rect x="290" y="280" width="700" height="60" rx="10" fill="#ffffff" stroke="#e5e7eb" stroke-width="2"/>
  <text x="350" y="320" font-family="Arial" font-size="16" fill="#9ca3af">Paste Facebook video URL here</text>
  
  <!-- Download Button -->
  <rect x="540" y="360" width="200" height="50" rx="8" fill="#3b82f6"/>
  <text x="640" y="390" font-family="Arial" font-weight="bold" font-size="18" fill="white" text-anchor="middle">Download</text>
  
  <!-- Features Section -->
  <text x="640" y="580" font-family="Arial" font-weight="bold" font-size="30" fill="#1f2937" text-anchor="middle">Why Choose SaveFBVideos?</text>
  
  <!-- Feature Cards -->
  <rect x="100" y="620" width="250" height="200" rx="10" fill="#ffffff" stroke="#e5e7eb" stroke-width="1"/>
  <circle cx="225" cy="680" r="30" fill="#ebf5ff"/>
  <text x="225" y="685" font-family="Arial" font-weight="bold" font-size="18" fill="#3b82f6" text-anchor="middle">⚡</text>
  <text x="225" y="730" font-family="Arial" font-weight="bold" font-size="18" fill="#1f2937" text-anchor="middle">Fast & Free</text>
  
  <rect x="380" y="620" width="250" height="200" rx="10" fill="#ffffff" stroke="#e5e7eb" stroke-width="1"/>
  <circle cx="505" cy="680" r="30" fill="#ebf5ff"/>
  <text x="505" y="685" font-family="Arial" font-weight="bold" font-size="18" fill="#3b82f6" text-anchor="middle">🔒</text>
  <text x="505" y="730" font-family="Arial" font-weight="bold" font-size="18" fill="#1f2937" text-anchor="middle">Secure</text>
  
  <rect x="660" y="620" width="250" height="200" rx="10" fill="#ffffff" stroke="#e5e7eb" stroke-width="1"/>
  <circle cx="785" cy="680" r="30" fill="#ebf5ff"/>
  <text x="785" y="685" font-family="Arial" font-weight="bold" font-size="18" fill="#3b82f6" text-anchor="middle">📱</text>
  <text x="785" y="730" font-family="Arial" font-weight="bold" font-size="18" fill="#1f2937" text-anchor="middle">Mobile Friendly</text>
  
  <rect x="940" y="620" width="250" height="200" rx="10" fill="#ffffff" stroke="#e5e7eb" stroke-width="1"/>
  <circle cx="1065" cy="680" r="30" fill="#ebf5ff"/>
  <text x="1065" y="685" font-family="Arial" font-weight="bold" font-size="18" fill="#3b82f6" text-anchor="middle">✓</text>
  <text x="1065" y="730" font-family="Arial" font-weight="bold" font-size="18" fill="#1f2937" text-anchor="middle">High Quality</text>
</svg>
